<svg id="Layer_1" data-name="Layer 1" xmlns="http://www.w3.org/2000/svg" xmlns:xlink="http://www.w3.org/1999/xlink" viewBox="0 0 2560.06 956.04"><defs><style>.cls-1{fill:none;}.cls-2{clip-path:url(#clip-path);}.cls-3{clip-path:url(#clip-path-2);}</style><clipPath id="clip-path" transform="translate(-78.13 -115.97)"><polygon class="cls-1" points="78.61 592.9 2520.71 595.43 2520.71 115.97 78.61 115.97 78.61 592.9"/></clipPath><clipPath id="clip-path-2" transform="translate(-78.13 -115.97)"><polygon class="cls-1" points="78.61 592.9 2520.71 595.43 2519.72 1074.89 77.63 1069.84 78.61 592.9"/></clipPath></defs><g id="_Mirror_Repeat_" data-name="&lt;Mirror Repeat&gt;"><g class="cls-2"><path d="M520.12,687m-28.4,1.78-17.42,1-13.11-3.09a25.48,25.48,0,0,1,1.36-5.49c11-23.83,21.88-47.67,33.3-71.38,1.25-2.57-.06-4-6.19-6A1427.27,1427.27,0,0,1,293.3,521.35a949.47,949.47,0,0,1-117.77-71.69c-31.3-22.23-55.07-45.11-76.4-68-7.47-8-13.76-16.06-20.52-24l12.1-.84c35.66,46,85.86,90.7,158.05,133.49s155.18,80,251.63,111.79C570.28,496.59,709,420.8,903.89,369c-17.15-8.23-33.71-15.7-48.94-23.63S825.7,329,809.79,320c13.57,1.12,13.86,1.15,21.19,5.66,24.11,14.83,51.5,28.34,81.34,40.59l111.14-24.05c-11.27-5.3-22.42-10.82-34.16-16-85.62-38-177.52-61.77-274.13-72-90.49-9.55-163.65-3.54-220,16.25-68.78,24.16-92.35,62.12-75.32,112.19,1.44,4.23,4.76,8.74,5.62,12.86.36,1.74-3.38,2.84-5.26,4.23-2.35-1.72-5.92-3.55-6.81-5.15-3.09-5.54-6-11.11-7.65-16.48-19.1-63.83,23.42-106.83,130.58-126C647.51,232.12,777.45,247.59,919.5,293c38.39,12.26,73,27.24,105.77,43.24,7.4,3.61,11.78,4.73,19.76,3.57,35.69-5.17,72.25-9.71,108.77-14.28,16.33-2,33.3-3.59,50.34-5.41-2-1.57-3.38-2.76-5-3.93q-72.4-54.21-174.56-100.29c-5.15-2.32-8.65-5.46-12.91-8.22l4-.9c78.35,33.88,142.82,71.77,196.37,112.16l169.49-8.39c-5.75-17.67-21.31-36.43-39.54-55.51l9.86-.08c19.77,19,33.74,37.49,41.9,56.28a3608,3608,0,0,1,390.3,18.9c-49.77-44.45-114.92-84.22-200.26-118.52C1431.56,150.4,1279.1,122,1127,123.5l-7.3-7a40.78,40.78,0,0,1,5.35-.55c28.55.74,56.55.6,85.85,2.48,74.09,4.74,149.79,17.53,226.67,37.62q112.2,29.33,206.46,74.22c63.1,30,112.66,62.84,152.72,97.58,3.42,3,6.8,4.56,13.46,5.37q43,5.19,86.2,10.76c82.46,10.5,165.57,24.63,249,41,72.5,14.25,145,29.47,216.71,48.44,51.62,13.66,102.88,28.17,154.26,42.39,1.69.47,2.91,1.89,4.35,2.86-2.09,0-4.26.4-6.26,0-3.51-.8-6.85-2.29-10.37-3.19-44.4-11.39-88.76-22.87-133.24-34-73.05-18.33-146.51-33.25-220-46.66Q2006.51,368.46,1865,353.19c-15.25-1.64-30.38-3.05-46.44-4.64,1.89,2.25,3.05,3.74,4.41,5.24,18.37,20.21,31.57,40.12,39.36,59.66a124.23,124.23,0,0,1,6.41,23.45c.34,1.83-2.16,3.75-5.32,4.29-2.33.41-7.85-1.35-11.54-2.07.19-3,1-5,.34-7.26-2.56-9-4.56-17.93-8.61-27.08-7.84-17.71-20.79-35.74-38.05-54-2.07-2.18-3.92-4.17-10.26-4.63-31.42-2.26-63.38-5.29-94.32-6.88-44.32-2.28-88.74-4.47-131.63-5-55.56-.66-109.71.32-164.27.79-3,0-5.66,1.54-6.14,2.95-1.15,3.3-.48,7.05-1.24,10.46-6.77,30.32-33.62,53.2-83.21,67.59-4.4,1.28-5,3.1-3.21,6.13,18.67,30.75,28.51,60.27,27.75,88.42-1,39-20.5,72.6-59.4,100.46-81.42,58.33-217.13,80.37-400.49,69.8-89.17-5.13-180.8-20.14-273.79-43.52-8.77-2.2-12.37-1.85-13.7,1.53-8.43,21.56-17.17,43-25.83,64.54-.42,1.07-1,2.1-1.18,2.56m668-278.68c-23.66,1.38-49.75.58-74.3.72l26.65,40.08c-11,.05-12.85-.83-16.38-6.11-7-10.43-14.47-20.88-21.36-31.29-2.53-3.82-6.26-5.06-14.47-5.93a827.25,827.25,0,0,1-146.06-29c-7.18-2.11-12.13-2.52-17.12-1.05a1223,1223,0,0,0-139.92,50.58,693.63,693.63,0,0,0-100.63,53.37c-32.8,21.13-62.24,43.6-84.77,68.52-16.94,18.73-30.87,38.47-46.08,57.78a15.84,15.84,0,0,0-1.69,3.62c148.28,41.71,387.85,70.54,558.48,27.44C1341.79,609,1356,501.78,1300.4,419.84,1278.12,422.41,1256.62,426,1232.71,427.35ZM1127.77,399.9c7.17,5.67,12.91,11.5,19,17.26,2.58,2.45,5.2,3.8,10.92,4.16,51.43,3.27,95.79.31,133.61-8.39,2.08-.48,3.87-2.06,3-3.28-14.18-20.94-32.49-41.9-56.91-62.84-.16-.14-.55-.26-2.67-1.69l-149.84,22.27C1100.4,379.08,1114.55,389.44,1127.77,399.9Zm257.93-64.62-2.77-1.71-136.79,10.6,59.12,65.15C1357.25,393.52,1384.22,368.91,1385.7,335.28Zm-250.48,84.31c-2.71-7.71-41.23-38.48-61.85-49.27L987,389.68c.37.53.74,1.07,1.12,1.6A787.51,787.51,0,0,0,1135.22,419.59Z" transform="translate(-78.13 -115.97)"/></g></g><g id="_Mirror_Repeat_2" data-name="&lt;Mirror Repeat&gt;"><g class="cls-3"><path d="M520.31,499.76m-28.39-1.84-17.42-1L461.39,500a24.73,24.73,0,0,0,1.34,5.49c10.91,23.85,21.78,47.72,33.16,71.45,1.23,2.57-.08,4-6.21,6A1426.8,1426.8,0,0,0,293.16,664.9a950.48,950.48,0,0,0-117.93,71.45c-31.34,22.17-55.16,45-76.53,67.86-7.49,8-13.8,16-20.57,24l12.09.87c35.76-45.92,86.05-90.53,158.33-133.17S403.9,616.19,500.4,584.6c69.67,105.63,208.2,181.71,403,233.89-17.16,8.2-33.74,15.63-49,23.53s-29.29,16.34-45.22,25.31c13.58-1.09,13.86-1.12,21.2-5.62,24.15-14.78,51.57-28.23,81.43-40.42l111.09,24.28c-11.28,5.28-22.44,10.77-34.19,16-85.7,37.85-177.65,61.41-274.28,71.4-90.51,9.35-163.65,3.19-219.93-16.71-68.72-24.3-92.22-62.31-75.09-112.35,1.45-4.23,4.78-8.72,5.65-12.85.37-1.74-3.38-2.84-5.25-4.23-2.35,1.71-5.93,3.53-6.82,5.13-3.1,5.53-6.06,11.1-7.68,16.47-19.24,63.78,23.19,106.88,130.32,126.31,111.09,20.16,241.07,5,383.21-40.12,38.42-12.19,73.1-27.1,105.86-43,7.4-3.6,11.79-4.71,19.77-3.54,35.67,5.25,72.22,9.87,108.74,14.51,16.32,2.07,33.29,3.66,50.33,5.51-2,1.57-3.39,2.76-5,3.93q-72.51,54-174.77,99.92c-5.15,2.31-8.66,5.45-12.93,8.2l4,.9c78.42-33.71,143-71.47,196.6-111.75L1381,878c-5.78,17.66-21.38,36.39-39.65,55.43l9.86.1c19.81-19,33.81-37.42,42-56.2a3605.19,3605.19,0,0,0,390.34-18.09c-49.86,44.35-115.09,84-200.5,118.1-152.39,60.89-304.91,89-457,87.15l-7.31,7a40.67,40.67,0,0,0,5.34.56c28.56-.68,56.56-.48,85.86-2.3,74.1-4.59,149.82-17.22,226.74-37.16q112.26-29.09,206.62-73.78c63.16-29.82,112.78-62.61,152.91-97.27,3.44-3,6.82-4.55,13.48-5.34,28.69-3.4,57.46-7,86.23-10.59,82.47-10.32,165.61-24.28,249-40.5,72.54-14.1,145.08-29.17,216.81-48,51.65-13.55,102.94-27.95,154.35-42.06,1.69-.47,2.92-1.89,4.36-2.86-2.09,0-4.26-.41-6.27.05-3.5.78-6.85,2.27-10.37,3.16-44.42,11.3-88.81,22.69-133.3,33.75-73.09,18.19-146.59,32.95-220.12,46.21q-144.37,26-285.87,41c-15.25,1.61-30.39,3-46.45,4.55,1.89-2.25,3.06-3.74,4.42-5.23,18.41-20.17,31.65-40.06,39.48-59.58a124.58,124.58,0,0,0,6.46-23.44c.35-1.83-2.15-3.75-5.31-4.31-2.33-.4-7.85,1.34-11.55,2.05.19,3,1,5,.33,7.27-2.58,9-4.59,17.91-8.66,27.06-7.87,17.69-20.87,35.7-38.16,53.88-2.08,2.18-3.94,4.16-10.27,4.6-31.43,2.2-63.39,5.17-94.34,6.69-44.33,2.19-88.74,4.29-131.64,4.71-55.56.56-109.7-.53-164.27-1.12-3,0-5.65-1.55-6.13-3-1.14-3.31-.47-7.06-1.22-10.47-6.71-30.33-33.51-53.27-83.06-67.76-4.4-1.29-5.06-3.1-3.21-6.14,18.73-30.71,28.64-60.2,27.94-88.36-1-39-20.35-72.64-59.19-100.58-81.3-58.5-217-80.82-400.35-70.63-89.18,4.95-180.84,19.77-273.88,42.95-8.77,2.19-12.38,1.83-13.69-1.56-8.39-21.57-17.09-43.07-25.7-64.59-.42-1.06-1-2.1-1.18-2.56m667.45,280.06c-23.65-1.43-49.74-.67-74.29-.87l26.73-40c-11-.08-12.85.8-16.4,6.08-7,10.4-14.5,20.84-21.42,31.24-2.54,3.81-6.26,5-14.48,5.9a826.39,826.39,0,0,0-146.12,28.66c-7.18,2.09-12.13,2.49-17.13,1A1224.38,1224.38,0,0,1,829.44,742a693.35,693.35,0,0,1-100.51-53.58c-32.77-21.2-62.15-43.72-84.64-68.69-16.9-18.77-30.79-38.53-45.95-57.87a16,16,0,0,1-1.69-3.64c148.37-41.4,388-69.73,558.54-26.27,186.63,47.55,200.56,154.74,144.85,236.57C1277.77,765.87,1256.27,762.28,1232.36,760.84Zm-105,27.24c7.18-5.66,12.93-11.47,19-17.23,2.59-2.44,5.21-3.78,10.93-4.13,51.44-3.16,95.79-.11,133.59,8.67,2.09.48,3.87,2.06,3,3.28-14.22,20.91-32.58,41.83-57,62.73-.15.13-.54.25-2.66,1.68l-149.8-22.58C1100,808.84,1114.12,798.51,1127.37,788.08Zm257.8,65.15-2.78,1.7-136.77-10.88,59.26-65C1356.83,794.93,1383.75,819.59,1385.17,853.23ZM1134.86,768.4c-2.73,7.71-41.31,38.4-62,49.14L986.53,798l1.12-1.59A787.53,787.53,0,0,1,1134.86,768.4Z" transform="translate(-78.13 -115.97)"/></g></g><path d="M2635,611.9c9.31-24.67-2.14-49.85-27-59.35-22.1-8.45-48,3.71-56.82,26.62-9,23.63,2.32,50.33,25,58.86C2599.83,646.91,2626.17,635.21,2635,611.9Z" transform="translate(-78.13 -115.97)"/></svg>