<svg id="Layer_1" data-name="Layer 1" xmlns="http://www.w3.org/2000/svg" viewBox="0 0 1436.18 741.68"><path d="M243.18,949.09m-16.24,4.68M217,956.48l-6.24-2.38c.62-1.64,1.38-4.15,2.5-6.49,13.67-28.67,27.33-57.35,41.22-85.92,1.5-3.1,1.23-4.61-1.49-6.44-31.65-21.26-58.73-47.32-82-77.49C153.79,755.45,140.29,731,129,705.4c-10.16-22.92-16-47.28-20.4-71.91-1.56-8.63-2.46-17.37-3.65-26l6.95-2.09c5,50.09,18.36,97.37,44.51,140.38A329,329,0,0,0,259.44,852.39c72.32-128.88,173.09-229.62,297.23-307.68-6.83-8-13.58-15.12-19.45-22.92s-10.89-16.34-16.79-25.32c7.13,0,7.28,0,9.88,4.61a163.06,163.06,0,0,0,31.9,39.62l69-38.15c-4.52-5.11-8.91-10.49-13.72-15.46-35.08-36.25-78.2-55.34-128.25-58.27-46.88-2.74-89.17,11-126.57,39.12C317,502.32,291.85,548.56,285.23,605.1c-.56,4.78-.17,9.7-1,14.42-.35,2-2.77,3.6-4.25,5.38-.74-1.78-2.13-3.57-2.11-5.34a149.06,149.06,0,0,1,1-18.43C288.78,528.81,326,475,391.29,442.8,459,409.43,525.75,415.41,589.61,455c17.26,10.7,31.59,24.89,44.54,40.44,2.92,3.51,5,4.41,9.76,2.33,21.34-9.29,43-17.93,64.59-26.59,9.66-3.88,19.52-7.24,29.51-10.92-.59-1.64-1-2.9-1.48-4.11a316.28,316.28,0,0,0-64.24-100.32c-2.1-2.22-3-5.55-4.49-8.36l2.48-1.41c32.4,32.11,55.85,70.15,72.48,112.1L839,432.8c2.48-20-.1-40.32-4.06-60.79l5.47-1a199.76,199.76,0,0,1,5.11,61.47c69.66-12.24,138.86-17.82,209.33-14-13.24-47-36.47-87.16-72.59-119.11-64.44-57-139.48-76-223.9-60.17-.59-2.46-1.12-4.67-1.79-7.43a16,16,0,0,1,3.12-1.13c15.53-1.78,31-4.51,46.59-5,39.36-1.32,77,6.55,113,22.79a260.53,260.53,0,0,1,90.19,67.12c25.23,28.95,42.06,62.56,53,99.19.94,3.13,2.3,4.67,5.71,5,14.72,1.38,29.43,3,44.13,4.56,42.14,4.59,83.48,13.32,124.26,24.67,35.46,9.86,70.6,20.85,104.09,36.26,24.12,11.1,47.76,23.22,71.56,35,.79.39,1,1.92,1.49,2.92-1.16.21-2.48.86-3.44.51-1.68-.6-3-2-4.7-2.74-20.86-9.13-41.66-18.37-62.63-27.22-34.45-14.55-70.22-25.1-106.49-33.89a834.32,834.32,0,0,0-144.4-21.95c-7.88-.5-15.78-.74-24.14-1.11.33,2.44.49,4.07.76,5.67a256.35,256.35,0,0,1,2.63,65.63c-.79,8.93-2.3,17.81-4,26.63a8.81,8.81,0,0,1-4.31,5.47c-1.41.68-3.9-.85-5.71-1.34,1.06-3.49,2.15-5.93,2.52-8.46,1.46-10.2,3.21-20.39,3.91-30.64a232.68,232.68,0,0,0-3.74-59.12c-.44-2.35-.83-4.48-4.18-4.43-16.61.27-33.28-.31-49.85.7-23.72,1.44-47.53,3-71,6.34-30.44,4.35-60.63,10.47-90.89,16-1.68.31-3.62,2.31-4.34,4-1.68,3.94-2.52,8.24-4,12.26-13.43,35.81-35.57,64.85-67.54,86.12-2.83,1.89-3.78,4.05-3.73,7.41A342.81,342.81,0,0,1,751.5,669c-13,45.32-34.54,86.15-64.92,122.08C623,866.3,541.05,904.38,443.25,909c-47.56,2.25-93.33-6.73-137.16-25.3-4.14-1.74-6.24-1-8,3-11.55,25.8-23.25,51.54-34.9,77.29-.58,1.27-1.21,2.53-1.47,3.08m457.78-385c-13.49,3.78-27.63,5.25-41.22,7.68.62,14.46,1.25,29.33,1.88,44.06-6.1,1.07-6.82.23-7.08-5.58-.52-11.46-1.31-22.9-1.78-34.35-.18-4.2-1.83-5.29-6.09-5.55a168.72,168.72,0,0,1-71.33-20.16c-3.29-1.79-5.89-1.8-9.12.37a990,990,0,0,0-93.39,71.59,806.74,806.74,0,0,0-72.6,71.22C393.86,739,370.43,767.73,350,798.73,334.68,822,320.68,846.22,306.11,870A43.6,43.6,0,0,0,304,874.4c68.48,34.76,191.45,46.15,299.4-19.6,118.13-71.95,160.23-197.64,155.79-287.63C746.1,572.2,733.09,578.31,719.45,582.12Zm-49.12-22.2c2.14,5.92,3.45,12.16,5,18.29.64,2.6,1.65,3.93,4.69,3.82a162.76,162.76,0,0,0,76.42-22c1.3-.75,2.79-2.74,2.72-4.09-1.12-23-4.52-45.63-11.3-67.69,0-.15-.22-.25-.93-1.72l-89.81,39.65C661.89,538.28,666.38,549,670.33,559.92Zm163-98.76-1-1.73-78.87,24.91c4,24,7.83,46.67,11.78,70.17Q815.87,519.82,833.34,461.16ZM668.15,582.09c1-8.7-10.45-40.86-18.38-51.48L595.89,561c0,.58.07,1.16.11,1.75C618.47,575,642.57,581.15,668.15,582.09Z" transform="translate(-104.9 -225.45)"/><path d="M1537.85,611.14c9.35-24.78-2.15-50.07-27.11-59.61-22.2-8.49-48.27,3.72-57.07,26.74-9.07,23.73,2.33,50.54,25.13,59.11C1502.56,646.3,1529,634.54,1537.85,611.14Z" transform="translate(-104.9 -225.45)"/></svg>