<svg id="Layer_1" data-name="Layer 1" xmlns="http://www.w3.org/2000/svg" viewBox="0 0 1436.18 741.68"><path d="M1402.81,949.09m16.24,4.68-34.73,13.35c-.27-.55-.9-1.81-1.47-3.08q-17.49-38.62-34.9-77.29c-1.82-4-3.92-4.78-8-3-43.84,18.57-89.6,27.55-137.16,25.3-97.8-4.63-179.74-42.71-243.33-117.91C929,755.17,907.54,714.34,894.49,669a342.14,342.14,0,0,1-13-100.07c0-3.36-.9-5.52-3.74-7.41-32-21.27-54.1-50.31-67.53-86.12-1.51-4-2.35-8.32-4-12.26-.72-1.68-2.66-3.68-4.33-4-30.26-5.57-60.45-11.69-90.9-16-23.5-3.36-47.31-4.9-71-6.34-16.57-1-33.23-.43-49.85-.7-3.35,0-3.73,2.08-4.18,4.43a233.14,233.14,0,0,0-3.73,59.12c.69,10.25,2.45,20.44,3.91,30.64.36,2.53,1.45,5,2.51,8.46-1.81.49-4.29,2-5.7,1.34a8.81,8.81,0,0,1-4.31-5.47c-1.67-8.82-3.17-17.7-4-26.63a256.35,256.35,0,0,1,2.64-65.63c.27-1.6.43-3.23.75-5.67-8.35.37-16.25.61-24.14,1.11a834.21,834.21,0,0,0-144.39,21.95c-36.28,8.79-72,19.34-106.49,33.89-21,8.85-41.78,18.09-62.63,27.22-1.66.72-3,2.14-4.71,2.74-1,.35-2.28-.3-3.43-.51.48-1,.7-2.53,1.48-2.92,23.81-11.77,47.45-23.89,71.56-35,33.5-15.41,68.64-26.4,104.09-36.26,40.78-11.35,82.13-20.08,124.27-24.67,14.7-1.6,29.4-3.18,44.12-4.56,3.42-.32,4.78-1.86,5.72-5,11-36.63,27.81-70.24,53-99.19a260.44,260.44,0,0,1,90.19-67.12c36-16.24,73.67-24.11,113-22.79,15.57.52,31.06,3.25,46.58,5a15.79,15.79,0,0,1,3.13,1.13c-.67,2.76-1.2,5-1.8,7.43-84.41-15.78-159.45,3.17-223.9,60.17-36.11,31.95-59.34,72.1-72.59,119.11,70.48-3.8,139.68,1.78,209.33,14A199.76,199.76,0,0,1,805.61,371l5.46,1c-4,20.47-6.54,40.82-4.05,60.79l96.21,25.36c16.63-42,40.08-80,72.48-112.1l2.48,1.41c-1.47,2.81-2.39,6.14-4.49,8.36a316.31,316.31,0,0,0-64.25,100.32c-.49,1.21-.89,2.47-1.47,4.11,10,3.68,19.85,7,29.51,10.92,21.61,8.66,43.24,17.3,64.59,26.59,4.77,2.08,6.83,1.18,9.76-2.33,12.94-15.55,27.27-29.74,44.53-40.44,63.87-39.59,130.63-45.57,198.33-12.2,65.29,32.18,102.51,86,112.38,158.33a149.07,149.07,0,0,1,1.06,18.43c0,1.77-1.37,3.56-2.11,5.34-1.48-1.78-3.9-3.4-4.26-5.38-.84-4.72-.45-9.64-1-14.42-6.62-56.54-31.78-102.78-77.46-137.16-37.4-28.15-79.69-41.86-126.58-39.12-50,2.93-93.16,22-128.25,58.27-4.81,5-9.19,10.35-13.72,15.46l69,38.15a163.3,163.3,0,0,0,31.9-39.62c2.6-4.56,2.75-4.56,9.88-4.61-5.9,9-10.91,17.48-16.8,25.32s-12.61,14.94-19.44,22.92c124.13,78.06,224.91,178.8,297.22,307.68,43-28,77-63.62,103.09-106.58s39.54-90.29,44.51-140.38l6.94,2.09c-1.18,8.6-2.09,17.34-3.64,26-4.44,24.63-10.24,49-20.4,71.91-11.35,25.6-24.85,50.05-42.06,72.36-23.27,30.17-50.36,56.23-82,77.49-2.72,1.83-3,3.34-1.49,6.44,13.89,28.57,27.54,57.25,41.22,85.92,1.11,2.34,1.88,4.85,2.5,6.49l-6.25,2.38M886.78,567.17c-4.44,90,37.66,215.68,155.79,287.63,108,65.75,230.92,54.36,299.4,19.6a45.91,45.91,0,0,0-2.09-4.36c-14.57-23.82-28.57-48-43.91-71.31-20.41-31-43.84-59.78-68.7-87.33a808.17,808.17,0,0,0-72.61-71.22,988.76,988.76,0,0,0-93.39-71.59c-3.22-2.17-5.83-2.16-9.11-.37a168.81,168.81,0,0,1-71.33,20.16c-4.26.26-5.92,1.35-6.09,5.55-.48,11.45-1.27,22.89-1.78,34.35-.26,5.81-1,6.65-7.09,5.58.63-14.73,1.27-29.6,1.89-44.06-13.59-2.43-27.73-3.9-41.23-7.68S899.89,572.2,886.78,567.17Zm102.11-41-89.81-39.65a18.35,18.35,0,0,1-.93,1.72c-6.77,22.06-10.17,44.7-11.3,67.69-.06,1.35,1.43,3.34,2.73,4.09A162.73,162.73,0,0,0,966,582c3,.11,4.06-1.22,4.7-3.82,1.52-6.13,2.82-12.37,5-18.29C979.61,549,984.1,538.28,988.89,526.13ZM880.73,554.51c3.94-23.5,7.75-46.19,11.78-70.17l-78.88-24.91-1,1.73Q830,519.92,880.73,554.51ZM1050,562.79c0-.59.07-1.17.1-1.75l-53.88-30.43c-7.92,10.62-19.34,42.78-18.37,51.48C1003.42,581.15,1027.52,575,1050,562.79Z" transform="translate(-104.9 -225.45)"/><path d="M108.14,611.14c-9.35-24.78,2.15-50.07,27.11-59.61,22.2-8.49,48.26,3.72,57.06,26.74,9.08,23.73-2.32,50.54-25.13,59.11C143.42,646.3,117,634.54,108.14,611.14Z" transform="translate(-104.9 -225.45)"/></svg>