<svg id="Layer_1" data-name="Layer 1" xmlns="http://www.w3.org/2000/svg" xmlns:xlink="http://www.w3.org/1999/xlink" viewBox="0 0 2560.06 956.04"><defs><style>.cls-1{fill:none;}.cls-2{clip-path:url(#clip-path);}.cls-3{clip-path:url(#clip-path-2);}</style><clipPath id="clip-path" transform="translate(-77.63 -115.97)"><polygon class="cls-1" points="2637.2 592.9 195.1 595.43 195.1 115.97 2637.2 115.97 2637.2 592.9"/></clipPath><clipPath id="clip-path-2" transform="translate(-77.63 -115.97)"><polygon class="cls-1" points="2637.2 592.9 195.1 595.43 196.09 1074.89 2638.18 1069.84 2637.2 592.9"/></clipPath></defs><g id="_Mirror_Repeat_" data-name="&lt;Mirror Repeat&gt;"><g class="cls-2"><path d="M2195.7,687m28.39,1.78-73,17.29c-.21-.46-.75-1.49-1.18-2.56-8.66-21.5-17.4-43-25.83-64.54-1.32-3.38-4.93-3.73-13.7-1.53-93,23.38-184.62,38.39-273.79,43.52-183.36,10.57-319.07-11.47-400.49-69.8-38.9-27.86-58.35-61.49-59.4-100.46-.76-28.15,9.09-57.67,27.75-88.42,1.85-3,1.19-4.85-3.21-6.13-49.59-14.39-76.44-37.27-83.2-67.59-.77-3.41-.1-7.16-1.25-10.46-.48-1.41-3.12-2.93-6.13-2.95-54.57-.47-108.72-1.45-164.27-.79-42.9.52-87.32,2.71-131.63,5-30.95,1.59-62.91,4.62-94.33,6.88-6.33.46-8.19,2.45-10.26,4.63C893,369,880,387.07,872.16,404.78c-4,9.15-6,18.09-8.61,27.08-.63,2.23.16,4.27.35,7.26-3.7.72-9.22,2.48-11.55,2.07-3.15-.54-5.66-2.46-5.31-4.29a123.44,123.44,0,0,1,6.4-23.45c7.79-19.54,21-39.45,39.37-59.66,1.36-1.5,2.52-3,4.4-5.24-16.06,1.59-31.19,3-46.43,4.64Q709.39,368.37,565,394.78c-73.51,13.41-147,28.33-220,46.66-44.47,11.16-88.84,22.64-133.24,34-3.52.9-6.86,2.39-10.36,3.19-2,.45-4.18.06-6.27,0,1.44-1,2.66-2.39,4.36-2.86,51.37-14.22,102.63-28.73,154.25-42.39,71.7-19,144.21-34.19,216.72-48.44,83.4-16.39,166.51-30.52,249-41q43.14-5.49,86.2-10.76c6.66-.81,10-2.4,13.47-5.37,40-34.74,89.61-67.63,152.71-97.58q94.35-44.79,206.47-74.22c76.87-20.09,152.57-32.88,226.66-37.62,29.3-1.88,57.3-1.74,85.86-2.48a40.65,40.65,0,0,1,5.34.55l-7.3,7c-152.1-1.53-304.56,26.9-456.82,88.09-85.34,34.3-150.48,74.07-200.26,118.52a3608,3608,0,0,1,390.3-18.9c8.17-18.79,22.13-37.29,41.9-56.28l9.86.08c-18.23,19.08-33.79,37.84-39.54,55.51l169.49,8.39c53.55-40.39,118-78.28,196.37-112.16l4,.9c-4.27,2.76-7.77,5.9-12.92,8.22Q1588.91,262,1516.62,316.16c-1.57,1.17-3,2.36-4.95,3.93,17,1.82,34,3.37,50.34,5.41,36.52,4.57,73.08,9.11,108.77,14.28,8,1.16,12.36,0,19.76-3.57,32.73-16,67.38-31,105.77-43.24,142-45.38,272-60.85,383.13-40.92,107.17,19.22,149.68,62.22,130.58,126.05-1.61,5.37-4.56,10.94-7.65,16.48-.89,1.6-4.46,3.43-6.81,5.15-1.87-1.39-5.62-2.49-5.26-4.23.87-4.12,4.18-8.63,5.62-12.86,17-50.07-6.54-88-75.32-112.19-56.31-19.79-129.47-25.8-220-16.25-96.61,10.19-188.51,33.93-274.13,72-11.74,5.21-22.89,10.73-34.16,16l111.15,24.05c29.83-12.25,57.22-25.76,81.33-40.59,7.34-4.51,7.62-4.54,21.2-5.66-15.92,9-29.88,17.44-45.17,25.4s-31.79,15.4-48.93,23.63c194.92,51.78,333.61,127.57,403.5,233.06C2311.87,570.29,2395,533,2467.05,490.29s122.39-87.51,158-133.49l12.1.84c-6.76,7.94-13,16-20.52,24-21.33,22.91-45.1,45.79-76.4,68a948.73,948.73,0,0,1-117.77,71.69,1427.27,1427.27,0,0,1-196.36,82.35c-6.13,2.06-7.43,3.46-6.19,6,11.43,23.71,22.34,47.55,33.31,71.38a26,26,0,0,1,1.35,5.49l-13.11,3.09m-826.1-269.85C1359.87,501.78,1374,609,1560.75,656.12c170.64,43.1,410.2,14.27,558.48-27.44a15.84,15.84,0,0,0-1.69-3.62c-15.2-19.31-29.14-39-46.07-57.78-22.54-24.92-52-47.39-84.78-68.52a693.63,693.63,0,0,0-100.63-53.37,1223.52,1223.52,0,0,0-139.91-50.58c-5-1.47-10-1.06-17.13,1.05a827.07,827.07,0,0,1-146.06,29c-8.21.87-11.94,2.11-14.46,5.93-6.9,10.41-14.39,20.86-21.37,31.29-3.53,5.28-5.36,6.16-16.38,6.11l26.65-40.08c-24.55-.14-50.64.66-74.3-.72C1459.19,426,1437.69,422.41,1415.41,419.84Zm215.47-52.45L1481,345.12c-2.12,1.43-2.51,1.55-2.66,1.69-24.43,20.94-42.74,41.9-56.92,62.84-.82,1.22,1,2.8,3,3.28,37.81,8.7,82.17,11.66,133.6,8.39,5.73-.36,8.34-1.71,10.93-4.16,6.09-5.76,11.83-11.59,19-17.26C1601.27,389.44,1615.41,379.08,1630.88,367.39Zm-220.33,41.93,59.12-65.15-136.79-10.6-2.77,1.71C1331.6,368.91,1358.56,393.52,1410.55,409.32Zm317.2-18,1.11-1.6-86.42-19.36c-20.61,10.79-59.14,41.56-61.85,49.27A787.76,787.76,0,0,0,1727.75,391.28Z" transform="translate(-77.63 -115.97)"/></g></g><g id="_Mirror_Repeat_2" data-name="&lt;Mirror Repeat&gt;"><g class="cls-3"><path d="M2195.5,499.76m28.39-1.84-73-17.14c-.21.46-.75,1.5-1.18,2.56-8.61,21.52-17.31,43-25.69,64.59-1.32,3.39-4.93,3.75-13.7,1.56-93-23.18-184.7-38-273.88-42.95-183.38-10.19-319,12.13-400.35,70.63-38.84,27.94-58.22,61.61-59.19,100.58-.7,28.16,9.21,57.65,27.94,88.36,1.85,3,1.2,4.85-3.2,6.14-49.56,14.49-76.36,37.43-83.07,67.76-.75,3.41-.08,7.16-1.22,10.47-.48,1.41-3.12,2.93-6.13,3-54.56.59-108.71,1.67-164.27,1.12-42.9-.42-87.31-2.53-131.64-4.71-31-1.52-62.91-4.49-94.34-6.69-6.33-.44-8.19-2.43-10.27-4.6-17.29-18.18-30.28-36.19-38.15-53.88-4.07-9.15-6.09-18.08-8.67-27.06-.64-2.24.14-4.27.33-7.27-3.7-.71-9.22-2.45-11.55-2.05-3.16.56-5.66,2.48-5.31,4.31a124.58,124.58,0,0,0,6.46,23.44c7.83,19.52,21.07,39.41,39.48,59.58,1.37,1.49,2.53,3,4.42,5.23-16.06-1.57-31.2-2.94-46.44-4.55q-141.43-14.89-285.88-41c-73.53-13.26-147-28-220.11-46.21C300.79,738,256.4,726.64,212,715.35c-3.52-.89-6.87-2.38-10.37-3.16-2-.46-4.17-.06-6.27-.05,1.45,1,2.67,2.39,4.36,2.85,51.41,14.12,102.7,28.52,154.35,42.07,71.73,18.83,144.27,33.9,216.81,48,83.44,16.22,166.58,30.17,249.06,40.5,28.76,3.6,57.53,7.19,86.22,10.59,6.66.79,10,2.38,13.48,5.34,40.13,34.66,89.75,67.44,152.91,97.27q94.44,44.58,206.62,73.78c76.92,19.94,152.64,32.57,226.74,37.16,29.31,1.82,57.31,1.62,85.86,2.3a40.67,40.67,0,0,0,5.34-.56l-7.31-7c-152.09,1.84-304.61-26.26-457-87.15-85.41-34.12-150.64-73.75-200.5-118.1a3605.31,3605.31,0,0,0,390.34,18.09c8.2,18.78,22.2,37.25,42,56.2l9.86-.1c-18.26-19-33.87-37.77-39.65-55.43l169.47-8.74c53.64,40.27,118.18,78,196.6,111.75l4-.9c-4.27-2.75-7.77-5.89-12.93-8.2Q1589.6,926,1517.19,872c-1.57-1.17-3-2.36-5-3.93,17-1.85,34-3.44,50.34-5.51,36.51-4.64,73.06-9.26,108.73-14.51,8-1.17,12.37-.06,19.77,3.54,32.76,15.92,67.44,30.83,105.86,43,142.15,45.09,272.12,60.28,383.21,40.12,107.13-19.44,149.56-62.53,130.32-126.31-1.62-5.37-4.57-10.94-7.68-16.47-.89-1.6-4.47-3.42-6.82-5.13-1.87,1.39-5.62,2.49-5.25,4.23.87,4.13,4.2,8.62,5.65,12.85,17.13,50-6.37,88-75.09,112.35-56.27,19.9-129.42,26.06-219.93,16.7-96.63-10-188.57-33.54-274.28-71.39-11.75-5.19-22.91-10.68-34.19-16L1804,821.29c29.85,12.19,57.27,25.64,81.42,40.42,7.34,4.5,7.62,4.53,21.2,5.62-15.93-9-29.91-17.38-45.22-25.31s-31.82-15.33-49-23.53c194.82-52.18,333.35-128.26,403-233.89,96.5,31.59,179.67,68.69,251.85,111.27S2589.83,783.12,2625.59,829l12.09-.87c-6.77-7.93-13.07-15.95-20.56-24-21.38-22.87-45.19-45.69-76.54-67.86a948.53,948.53,0,0,0-117.93-71.45A1425.56,1425.56,0,0,0,2226.13,583c-6.13-2.05-7.44-3.45-6.21-6,11.38-23.73,22.25-47.6,33.16-71.45a24.73,24.73,0,0,0,1.34-5.49l-13.11-3.06M1415.77,768.49c-55.71-81.83-41.78-189,144.86-236.57,170.54-43.46,410.16-15.13,558.53,26.27a16,16,0,0,1-1.69,3.64c-15.16,19.34-29,39.1-45.95,57.87-22.48,25-51.87,47.49-84.64,68.69A693.35,693.35,0,0,1,1886.37,742a1224.38,1224.38,0,0,1-139.81,50.87c-5,1.48-10,1.08-17.13-1a826.39,826.39,0,0,0-146.12-28.66c-8.22-.86-11.94-2.09-14.48-5.9-6.92-10.4-14.43-20.84-21.42-31.24-3.55-5.29-5.38-6.16-16.4-6.08,8.94,13.37,18,26.88,26.73,40-24.55.19-50.64-.56-74.29.87C1459.54,762.28,1438,765.87,1415.77,768.49Zm215.58,52-149.8,22.58c-2.12-1.43-2.51-1.55-2.66-1.68-24.47-20.9-42.83-41.82-57.05-62.73-.83-1.22,1-2.8,3-3.28,37.8-8.78,82.15-11.83,133.59-8.67,5.72.35,8.34,1.69,10.93,4.13,6.11,5.76,11.86,11.57,19,17.23C1601.69,798.51,1615.86,808.84,1631.35,820.5ZM1410.93,779l59.26,65-136.77,10.88-2.77-1.7C1332.06,819.59,1359,794.93,1410.93,779Zm317.23,17.39,1.12,1.59-86.37,19.54c-20.64-10.74-59.23-41.43-62-49.14A786.73,786.73,0,0,1,1728.16,796.41Z" transform="translate(-77.63 -115.97)"/></g></g><path d="M80.85,611.9c-9.31-24.67,2.14-49.85,27-59.35,22.1-8.45,48.06,3.71,56.82,26.62,9,23.63-2.32,50.33-25,58.86C116,646.91,89.64,635.21,80.85,611.9Z" transform="translate(-77.63 -115.97)"/></svg>